# xmcd CD database file
#
# Track frame offsets:
#	150
#	1358
#	26944
#	44018
#	64231
#	81110
#	99984
#	112497
#	125027
#	144759
#	161346
#	176759
#	194259
#	212785
#	231286
#	243588
#	259011
#	276596
#
# Disc length: 3887 seconds
#
# Revision: 0
# Processed by: cddbd v1.5.2PL0 Copyright (c) Steve Scherf et al.
# Submitted via: Feurio! 1.68 - http://www.feurio.com
#
DISCID=110f2d12
DTITLE=Various Artist - Power Aerobic - 2008/II - Chart
DYEAR=2008
DGENRE=Aerobic - Tae Bo
TTITLE0=Move Ya! - Intro
TTITLE1=Duffy - Mercy (Power Remix)
TTITLE2=Madonna - Give It To Me (Oakenfold Remix)
TTITLE3=Danzel - You Spin Me Round Like A Record
TTITLE4=Captain Hollywood - More and More (Recall)
TTITLE5=Daisy Dee - The Summer Is Magic
TTITLE6=4 Clubbers - Try And Try
TTITLE7=Liz Kay - True Faith
TTITLE8=Alex Megane - Something
TTITLE9=Mark'Oh - I Don't Like Mondays
TTITLE10=Dan Winter - Carry Your Heart
TTITLE11=Mario Lopez - The One And Only
TTITLE12=Topmodelz - What You Looking Like That
TTITLE13=Cascada - What Do You Want From Me
TTITLE14=Verano - The Rhythm Of The Night
TTITLE15=FINAL - Summer Is Magic vs. What Do U Want From Me
TTITLE16=Michael Jackson - Wanna Be Startin' Somethin' 08
TTITLE17=Freemasons - Uninvited (Acoustic Mix)
EXTD=Summer 08\r\nCardio: 54:05  135 - 140 BPM\r\nFINAL: 1x32 Intro and 6x32 
EXTD=Choreo and 1x32 Intermezzo and 6x32 Choreo
EXTT0=
EXTT1=
EXTT2=
EXTT3=
EXTT4=
EXTT5=
EXTT6=
EXTT7=
EXTT8=
EXTT9=
EXTT10=
EXTT11=
EXTT12=
EXTT13=
EXTT14=
EXTT15=
EXTT16=
EXTT17=
PLAYORDER=
